HIERARCHY
ROOT Hips
{
	OFFSET 0.000000 0.000000 0.000000
	CHANNELS 6 Xposition Yposition Zposition Xrotation Yrotation Zrotation
	JOINT LeftUpLeg_virtual
	{
		OFFSET 0.000000 0.000000 0.000000
		CHANNELS 3 Xrotation Yrotation Zrotation
		JOINT LeftUpLeg
		{
			OFFSET 11.394100 -6.187798 -0.413800
			CHANNELS 3 Xrotation Yrotation Zrotation
			JOINT LeftLeg
			{
				OFFSET 0.430247 -32.302673 3.732800
				CHANNELS 3 Xrotation Yrotation Zrotation
				JOINT LeftFoot
				{
					OFFSET -0.430247 -48.264931 -6.423300
					CHANNELS 3 Xrotation Yrotation Zrotation
					JOINT LeftToeBase
					{
						OFFSET 4.230900 -16.068199 23.438400
						CHANNELS 3 Xrotation Yrotation Zrotation
						JOINT LeftToe_End
						{
							OFFSET 4.510700 0.695400 19.974600
							CHANNELS 3 Xrotation Yrotation Zrotation
							End Site
							{
								OFFSET 0 0 0
							}
						}
					}
				}
			}
		}
	}
	JOINT RightUpLeg_virtual
	{
		OFFSET 0.000000 0.000000 0.000000
		CHANNELS 3 Xrotation Yrotation Zrotation
		JOINT RightUpLeg
		{
			OFFSET -11.333700 -6.187798 -0.413800
			CHANNELS 3 Xrotation Yrotation Zrotation
			JOINT RightLeg
			{
				OFFSET -0.430392 -32.302628 3.733000
				CHANNELS 3 Xrotation Yrotation Zrotation
				JOINT RightFoot
				{
					OFFSET 0.430392 -48.264973 -6.423500
					CHANNELS 3 Xrotation Yrotation Zrotation
					JOINT RightToeBase
					{
						OFFSET -4.230900 -16.068199 23.438400
						CHANNELS 3 Xrotation Yrotation Zrotation
						JOINT RightToe_End
						{
							OFFSET -4.510700 0.695400 19.974600
							CHANNELS 3 Xrotation Yrotation Zrotation
							End Site
							{
								OFFSET 0 0 0
							}
						}
					}
				}
			}
		}
	}
	JOINT Spine_virtual
	{
		OFFSET 0.000000 0.000000 0.000000
		CHANNELS 3 Xrotation Yrotation Zrotation
		JOINT Spine
		{
			OFFSET -0.002400 12.777504 0.315300
			CHANNELS 3 Xrotation Yrotation Zrotation
			JOINT Spine1
			{
				OFFSET -0.002067 5.816869 0.032633
				CHANNELS 3 Xrotation Yrotation Zrotation
				JOINT Spine1_split
				{
					OFFSET -0.002067 5.816869 0.032633
					CHANNELS 3 Xrotation Yrotation Zrotation
					JOINT Spine2
					{
						OFFSET -0.002067 5.816869 0.032633
						CHANNELS 3 Xrotation Yrotation Zrotation
						JOINT Neck_virtual
						{
							OFFSET 0.000000 0.000000 0.000000
							CHANNELS 3 Xrotation Yrotation Zrotation
							JOINT Neck
							{
								OFFSET -0.003700 21.199493 -0.826900
								CHANNELS 3 Xrotation Yrotation Zrotation
								JOINT Head
								{
									OFFSET 0.000000 20.442200 4.834800
									CHANNELS 3 Xrotation Yrotation Zrotation
									JOINT HeadTop_End
									{
										OFFSET 0.000000 34.668396 4.968400
										CHANNELS 3 Xrotation Yrotation Zrotation
										End Site
										{
											OFFSET 0 0 0
										}
									}
								}
							}
						}
						JOINT LeftShoulder_virtual
						{
							OFFSET 0.000000 0.000000 0.000000
							CHANNELS 3 Xrotation Yrotation Zrotation
							JOINT LeftShoulder
							{
								OFFSET 3.288150 8.794197 -1.372250
								CHANNELS 3 Xrotation Yrotation Zrotation
								JOINT LeftShoulder_split
								{
									OFFSET 3.288150 8.794197 -1.372250
									CHANNELS 3 Xrotation Yrotation Zrotation
									JOINT LeftArm
									{
										OFFSET 11.953299 -2.279007 -0.146200
										CHANNELS 3 Xrotation Yrotation Zrotation
										JOINT LeftForeArm
										{
											OFFSET 18.448900 0.000000 0.000000
											CHANNELS 3 Xrotation Yrotation Zrotation
											JOINT LeftHand
											{
												OFFSET 29.527798 0.000000 0.000000
												CHANNELS 3 Xrotation Yrotation Zrotation
												End Site
												{
													OFFSET 0 0 0
												}
											}
										}
									}
								}
							}
						}
						JOINT RightShoulder_virtual
						{
							OFFSET 0.000000 0.000000 0.000000
							CHANNELS 3 Xrotation Yrotation Zrotation
							JOINT RightShoulder
							{
								OFFSET -3.249400 8.794197 -1.372250
								CHANNELS 3 Xrotation Yrotation Zrotation
								JOINT RightShoulder_split
								{
									OFFSET -3.249400 8.794197 -1.372250
									CHANNELS 3 Xrotation Yrotation Zrotation
									JOINT RightArm
									{
										OFFSET -11.953299 -2.279007 -0.146200
										CHANNELS 3 Xrotation Yrotation Zrotation
										JOINT RightForeArm
										{
											OFFSET -18.448900 0.000000 0.000000
											CHANNELS 3 Xrotation Yrotation Zrotation
											JOINT RightHand
											{
												OFFSET -29.527802 0.000000 0.000000
												CHANNELS 3 Xrotation Yrotation Zrotation
												End Site
												{
													OFFSET 0 0 0
												}
											}
										}
									}
								}
							}
						}
					}
				}
			}
		}
	}
}
MOTION
Frames: 11
Frame Time: 0.03333333
-0.978440 92.058807 4.644180 0.000000 0.000000 0.000000 -14.638876 -1.782332 -5.327688 -34.574319 21.662059 11.659757 40.957199 -8.739217 9.809085 2.646785 -6.611887 -0.192489 -2.616553 0.073564 -1.132053 0.000000 0.000000 0.000000 -14.109388 -1.453066 -5.470479 -23.779351 -30.781419 -1.287741 35.371668 9.419614 -10.335827 4.113722 8.010874 -6.460620 -2.763499 0.223121 -0.119939 0.000000 0.000000 0.000000 -14.359952 -2.438471 -6.026992 5.182735 -1.372376 2.889449 13.338573 -0.839319 -0.179184 0.479330 2.551523 -0.425127 0.000000 0.000000 0.000000 11.954954 -0.277574 -0.394861 11.212647 1.043140 1.447159 -1.546321 1.458492 3.511105 0.000000 0.000000 0.000000 12.281336 -0.147335 -0.465569 0.772418 7.305629 -9.983209 -1.956681 -2.662651 -0.506423 82.109850 -69.536387 10.898310 0.089272 -25.197405 1.275103 0.000000 0.000000 0.000000 12.320261 -0.376185 -0.493645 1.512940 -1.452504 10.863242 5.702363 0.193084 -2.297788 5.993748 35.314025 58.632611 -0.924980 27.750842 0.426530 0.000000 0.000000 0.000000 
-0.947354 92.066086 4.650028 0.000000 0.000000 0.000000 -14.648333 -1.841691 -5.296121 -34.556157 21.772399 11.653180 40.943422 -8.725330 9.799832 2.637116 -6.624587 -0.166898 -2.611992 0.070803 -1.119857 0.000000 0.000000 0.000000 -14.119353 -1.508193 -5.437533 -23.795655 -30.643589 -1.267911 35.370821 9.393259 -10.362068 4.105577 7.981999 -6.461076 -2.711403 0.209263 -0.089094 0.000000 0.000000 0.000000 -14.364740 -2.492376 -5.993196 5.179669 -1.360845 2.876997 13.335947 -0.823385 -0.176400 0.476782 2.540186 -0.420750 0.000000 0.000000 0.000000 11.951684 -0.262595 -0.393968 11.235970 1.043836 1.416919 -1.568815 1.464634 3.512747 0.000000 0.000000 0.000000 12.277842 -0.135103 -0.461548 0.772195 7.316099 -10.035668 -1.960601 -2.627829 -0.514637 81.955952 -69.453571 10.827494 0.089310 -25.277089 1.272537 0.000000 0.000000 0.000000 12.311287 -0.361742 -0.488822 1.511477 -1.449260 10.843041 5.679612 0.194720 -2.297605 5.993950 35.322808 58.602265 -0.929941 27.708751 0.430186 0.000000 0.000000 0.000000 
-0.922490 92.069099 4.656567 0.000000 0.000000 0.000000 -14.653964 -1.892747 -5.260659 -34.537169 21.878839 11.644340 40.930667 -8.711483 9.791738 2.620587 -6.636482 -0.132267 -2.605688 0.068116 -1.113289 0.000000 0.000000 0.000000 -14.128125 -1.552753 -5.401440 -23.833250 -30.508297 -1.262803 35.396748 9.372151 -10.392743 4.098277 7.972973 -6.462967 -2.659408 0.204131 -0.058435 0.000000 0.000000 0.000000 -14.367914 -2.534369 -5.956992 5.173558 -1.353723 2.857627 13.334362 -0.811855 -0.174324 0.478886 2.530046 -0.417175 0.000000 0.000000 0.000000 11.951135 -0.251546 -0.393216 11.268945 1.044622 1.387072 -1.591556 1.456053 3.542740 0.000000 0.000000 0.000000 12.277909 -0.127128 -0.457854 0.772535 7.323482 -10.082099 -1.958450 -2.600919 -0.522701 81.666885 -69.358194 10.628948 0.091168 -25.381876 1.269719 0.000000 0.000000 0.000000 12.304220 -0.351724 -0.484456 1.511355 -1.436031 10.847599 5.660918 0.208221 -2.303290 6.035027 35.319892 58.522591 -0.930477 27.713195 0.433553 0.000000 0.000000 0.000000 
-0.906608 92.065056 4.665237 0.000000 0.000000 0.000000 -14.656271 -1.929270 -5.223214 -34.522785 21.968301 11.634462 40.929284 -8.704895 9.789017 2.600401 -6.650436 -0.096695 -2.601642 0.065943 -1.113956 0.000000 0.000000 0.000000 -14.135911 -1.581155 -5.364676 -23.893026 -30.390797 -1.278103 35.455030 9.361032 -10.425917 4.089511 7.990512 -6.461949 -2.615171 0.208037 -0.034081 0.000000 0.000000 0.000000 -14.369905 -2.559889 -5.920040 5.164016 -1.351191 2.832133 13.332558 -0.805910 -0.173133 0.479860 2.522246 -0.415400 0.000000 0.000000 0.000000 11.950913 -0.245776 -0.392510 11.313746 1.044938 1.363193 -1.610942 1.431120 3.604157 0.000000 0.000000 0.000000 12.279827 -0.124245 -0.454647 0.773818 7.329021 -10.117189 -1.948833 -2.586775 -0.527420 81.288096 -69.257244 10.335489 0.094945 -25.505253 1.265502 0.000000 0.000000 0.000000 12.298458 -0.347071 -0.480664 1.511960 -1.415086 10.875033 5.649327 0.234874 -2.318344 6.112157 35.305084 58.411873 -0.926585 27.761020 0.435705 0.000000 0.000000 0.000000 
-0.900780 92.055870 4.675919 0.000000 0.000000 0.000000 -14.654982 -1.945700 -5.186805 -34.517013 22.029798 11.623582 40.940577 -8.709131 9.793279 2.580800 -6.667303 -0.068601 -2.599243 0.064565 -1.121727 0.000000 0.000000 0.000000 -14.140445 -1.593426 -5.329498 -23.967095 -30.299177 -1.313721 35.539230 9.359779 -10.456977 4.078534 8.032635 -6.451976 -2.587020 0.218637 -0.018553 0.000000 0.000000 0.000000 -14.370264 -2.569900 -5.886056 5.152217 -1.351867 2.802627 13.329411 -0.805103 -0.172677 0.482699 2.517587 -0.414323 0.000000 0.000000 0.000000 11.948762 -0.245127 -0.391635 11.370516 1.045319 1.349678 -1.624724 1.393580 3.693754 0.000000 0.000000 0.000000 12.280544 -0.125893 -0.451995 0.775891 7.332697 -10.138267 -1.930926 -2.586020 -0.529356 80.870362 -69.158684 9.988265 0.099657 -25.639567 1.259846 0.000000 0.000000 0.000000 12.292198 -0.347672 -0.477519 1.512851 -1.388783 10.923814 5.646904 0.269575 -2.340870 6.215975 35.277114 58.284620 -0.918365 27.841509 0.436715 0.000000 0.000000 0.000000 
-0.903512 92.044487 4.685966 0.000000 0.000000 0.000000 -14.649301 -1.938451 -5.153788 -34.519995 22.058521 11.611946 40.957895 -8.723121 9.803350 2.566518 -6.683836 -0.050867 -2.594461 0.063947 -1.135837 0.000000 0.000000 0.000000 -14.140166 -1.586755 -5.297660 -24.036803 -30.234297 -1.357672 35.629508 9.365196 -10.483133 4.064569 8.089501 -6.435565 -2.576000 0.232612 -0.012217 0.000000 0.000000 0.000000 -14.367605 -2.567619 -5.857329 5.139149 -1.354064 2.772542 13.322826 -0.808162 -0.172653 0.485077 2.512183 -0.411968 0.000000 0.000000 0.000000 11.942443 -0.248121 -0.390315 11.437603 1.046090 1.347808 -1.631487 1.346513 3.803918 0.000000 0.000000 0.000000 12.276633 -0.130370 -0.449686 0.779547 7.335833 -10.146529 -1.908442 -2.600171 -0.528822 80.457962 -69.068983 9.631766 0.104564 -25.775099 1.252589 0.000000 0.000000 0.000000 12.283375 -0.352071 -0.474635 1.513570 -1.361210 10.992205 5.654143 0.303543 -2.365361 6.334421 35.232028 58.153317 -0.908224 27.942283 0.436981 0.000000 0.000000 0.000000 
-0.911456 92.034286 4.694992 0.000000 0.000000 0.000000 -14.639008 -1.913971 -5.127469 -34.527296 22.056361 11.597468 40.969438 -8.739820 9.815287 2.558488 -6.694099 -0.042629 -2.586760 0.063852 -1.153539 0.000000 0.000000 0.000000 -14.133290 -1.568360 -5.270857 -24.087357 -30.190372 -1.395885 35.700385 9.369864 -10.500387 4.041108 8.144186 -6.421035 -2.573436 0.246210 -0.012461 0.000000 0.000000 0.000000 -14.361069 -2.554834 -5.835741 5.126085 -1.355297 2.746073 13.311305 -0.812259 -0.172519 0.483181 2.505178 -0.413114 0.000000 0.000000 0.000000 11.930845 -0.252262 -0.388803 11.511744 1.048122 1.356366 -1.630444 1.294570 3.922788 0.000000 0.000000 0.000000 12.266157 -0.134936 -0.447592 0.784967 7.340763 -10.147525 -1.891039 -2.617189 -0.531871 80.078845 -68.990409 9.295988 0.108121 -25.904010 1.244617 0.000000 0.000000 0.000000 12.269880 -0.357533 -0.471974 1.513729 -1.335083 11.076808 5.667616 0.334394 -2.385750 6.460701 35.170000 58.023215 -0.896313 28.050136 0.436611 0.000000 0.000000 0.000000 
-0.922042 92.028069 4.698433 0.000000 0.000000 0.000000 -14.624366 -1.884297 -5.109587 -34.532231 22.031803 11.579938 40.966150 -8.752070 9.825926 2.556062 -6.693351 -0.038907 -2.576981 0.063705 -1.171664 0.000000 0.000000 0.000000 -14.120795 -1.543187 -5.249377 -24.108360 -30.160527 -1.418043 35.737093 9.368301 -10.506784 4.011002 8.183027 -6.414713 -2.570574 0.256663 -0.015780 0.000000 0.000000 0.000000 -14.348791 -2.536120 -5.821637 5.113954 -1.353615 2.726685 13.294229 -0.814536 -0.171902 0.483487 2.495318 -0.415812 0.000000 0.000000 0.000000 11.913557 -0.255004 -0.386780 11.588569 1.051354 1.372385 -1.621238 1.241062 4.038256 0.000000 0.000000 0.000000 12.247665 -0.137222 -0.445702 0.792745 7.349389 -10.150009 -1.876263 -2.637182 -0.537791 79.747506 -68.921970 9.002302 0.109607 -26.022375 1.237111 0.000000 0.000000 0.000000 12.250529 -0.361332 -0.469367 1.513333 -1.313351 11.172669 5.686576 0.358851 -2.401846 6.586603 35.095083 57.895060 -0.884491 28.155168 0.436473 0.000000 0.000000 0.000000 
-0.931544 92.027115 4.698071 0.000000 0.000000 0.000000 -14.608573 -1.861683 -5.098868 -34.529229 21.996226 11.559947 40.946588 -8.757214 9.833669 2.561051 -6.680642 -0.038200 -2.567540 0.062806 -1.186521 0.000000 0.000000 0.000000 -14.106023 -1.522464 -5.233699 -24.102177 -30.134200 -1.416540 35.734652 9.358960 -10.504240 3.984357 8.196016 -6.416767 -2.566898 0.261517 -0.022295 0.000000 0.000000 0.000000 -14.334023 -2.515509 -5.812979 5.104240 -1.348183 2.716949 13.270606 -0.812528 -0.170067 0.478736 2.484464 -0.418685 0.000000 0.000000 0.000000 11.890910 -0.254295 -0.384128 11.663705 1.053970 1.391446 -1.605146 1.187584 4.139729 0.000000 0.000000 0.000000 12.221698 -0.135444 -0.443232 0.802945 7.364032 -10.163793 -1.871617 -2.649569 -0.548762 79.471081 -68.858101 8.760279 0.109010 -26.127103 1.230596 0.000000 0.000000 0.000000 12.225085 -0.361519 -0.466226 1.512801 -1.298277 11.271041 5.707021 0.379908 -2.412724 6.707129 35.013910 57.772595 -0.873044 28.246097 0.435869 0.000000 0.000000 0.000000 
-0.937496 92.033188 4.694416 0.000000 0.000000 0.000000 -14.595534 -1.854549 -5.094743 -34.516101 21.960493 11.538987 40.914230 -8.756977 9.837748 2.574816 -6.660186 -0.043070 -2.564187 0.060701 -1.194088 0.000000 0.000000 0.000000 -14.090755 -1.513003 -5.223207 -24.077557 -30.104025 -1.394499 35.705821 9.341624 -10.494625 3.975977 8.182083 -6.420663 -2.564018 0.259848 -0.030331 0.000000 0.000000 0.000000 -14.319438 -2.498007 -5.807913 5.097246 -1.339415 2.717325 13.241295 -0.805191 -0.166103 0.478796 2.475566 -0.425124 0.000000 0.000000 0.000000 11.863246 -0.250055 -0.380012 11.732776 1.055217 1.409529 -1.585484 1.136329 4.220707 0.000000 0.000000 0.000000 12.189372 -0.129708 -0.439671 0.815217 7.385418 -10.195596 -1.873641 -2.657505 -0.562884 79.244497 -68.796035 8.565541 0.106276 -26.217609 1.226052 0.000000 0.000000 0.000000 12.194340 -0.357593 -0.462031 1.512661 -1.289677 11.363104 5.724829 0.394532 -2.420595 6.822470 34.936903 57.655512 -0.862544 28.312778 0.434979 0.000000 0.000000 0.000000 
-0.939379 92.044456 4.687881 0.000000 0.000000 0.000000 -14.586781 -1.862480 -5.094390 -34.497950 21.934230 11.520864 40.878436 -8.754162 9.838377 2.597868 -6.636692 -0.055448 -2.565644 0.057728 -1.194122 0.000000 0.000000 0.000000 -14.079537 -1.515298 -5.217147 -24.044414 -30.067073 -1.356925 35.657528 9.320596 -10.482991 3.991838 8.150431 -6.421757 -2.563763 0.251559 -0.038827 0.000000 0.000000 0.000000 -14.307705 -2.487177 -5.804580 5.093292 -1.328991 2.726398 13.207324 -0.793671 -0.159142 0.478369 2.466377 -0.426589 0.000000 0.000000 0.000000 11.832679 -0.242983 -0.373118 11.795248 1.053841 1.423062 -1.566327 1.088068 4.278530 0.000000 0.000000 0.000000 12.152236 -0.121191 -0.433652 0.828910 7.413057 -10.248363 -1.884462 -2.655115 -0.576943 79.061509 -68.735458 8.412436 0.101621 -26.291514 1.222217 0.000000 0.000000 0.000000 12.159626 -0.350630 -0.455575 1.513228 -1.287150 11.439094 5.739759 0.400737 -2.426055 6.926316 34.873822 57.549542 -0.854560 28.347956 0.433303 0.000000 0.000000 0.000000 
